<svg xmlns="http://www.w3.org/2000/svg" xmlns:xlink="http://www.w3.org/1999/xlink" width="500" zoomAndPan="magnify" viewBox="0 0 375 374.999991" height="500" preserveAspectRatio="xMidYMid meet" version="1.0"><defs><clipPath id="f9bb682a32"><path d="M 114.671875 141.980469 L 260.171875 141.980469 L 260.171875 232.730469 L 114.671875 232.730469 Z M 114.671875 141.980469 " clip-rule="nonzero"/></clipPath></defs><g clip-path="url(#f9bb682a32)"><path fill="#fd288d" d="M 254.574219 213.839844 L 190.53125 180.003906 L 190.53125 175.730469 C 190.554688 175.726562 190.582031 175.714844 190.613281 175.710938 C 200.703125 173.210938 207.476562 166.925781 207.476562 158.847656 C 207.476562 149.53125 199.925781 141.980469 190.613281 141.980469 C 182.011719 141.980469 174.535156 148.277344 173.800781 156.710938 C 173.777344 156.839844 173.761719 156.972656 173.761719 157.105469 C 173.761719 157.121094 173.757812 157.136719 173.757812 157.15625 C 173.757812 158.832031 175.117188 160.1875 176.792969 160.1875 C 178.46875 160.1875 179.832031 158.832031 179.832031 157.15625 L 179.847656 157.15625 C 180.09375 154.53125 181.367188 152.648438 182.488281 151.472656 C 184.558594 149.296875 187.523438 148.050781 190.613281 148.050781 C 196.566406 148.050781 201.40625 152.894531 201.40625 158.847656 C 201.40625 161.117188 200.460938 163.199219 198.582031 165.035156 C 196.390625 167.179688 193.132812 168.835938 189.15625 169.816406 C 189.15625 169.816406 184.546875 171.242188 184.464844 171.269531 L 184.464844 172.324219 L 184.460938 172.324219 L 184.460938 180.003906 L 120.425781 213.839844 C 116.988281 215.605469 114.671875 218.933594 114.671875 222.746094 C 114.671875 228.417969 119.796875 233.011719 126.117188 233.011719 C 126.234375 233.011719 126.460938 233.011719 126.460938 233.011719 L 248.539062 233.011719 C 248.539062 233.011719 248.765625 233.011719 248.882812 233.011719 C 255.203125 233.011719 260.324219 228.417969 260.324219 222.746094 C 260.324219 218.933594 258.011719 215.605469 254.574219 213.839844 Z M 248.882812 226.941406 L 126.117188 226.941406 C 123.207031 226.941406 120.746094 225.023438 120.746094 222.746094 C 120.746094 221.339844 121.664062 220.027344 123.207031 219.226562 L 123.234375 219.214844 L 123.261719 219.199219 L 187.492188 185.265625 L 251.738281 219.199219 L 251.765625 219.214844 L 251.792969 219.226562 C 253.335938 220.027344 254.257812 221.339844 254.257812 222.746094 C 254.253906 225.023438 251.792969 226.941406 248.882812 226.941406 Z M 248.882812 226.941406 " fill-opacity="1" fill-rule="nonzero"/></g></svg>