<svg xmlns="http://www.w3.org/2000/svg" xmlns:xlink="http://www.w3.org/1999/xlink" width="500" zoomAndPan="magnify" viewBox="0 0 375 374.999991" height="500" preserveAspectRatio="xMidYMid meet" version="1.0"><defs><clipPath id="18906a1369"><path d="M 132.273438 142 L 242.523438 142 L 242.523438 248.515625 L 132.273438 248.515625 Z M 132.273438 142 " clip-rule="nonzero"/></clipPath><clipPath id="e25d48ada7"><path d="M 160 115.765625 L 216 115.765625 L 216 166 L 160 166 Z M 160 115.765625 " clip-rule="nonzero"/></clipPath></defs><g clip-path="url(#18906a1369)"><path fill="#fd288d" d="M 234.570312 248.234375 L 140.980469 248.234375 C 138.707031 248.234375 136.5 247.289062 134.941406 245.636719 C 133.378906 243.984375 132.554688 241.734375 132.683594 239.460938 L 137.609375 150.78125 C 137.851562 146.375 141.496094 142.925781 145.90625 142.925781 L 229.644531 142.925781 C 234.054688 142.925781 237.699219 146.375 237.941406 150.78125 L 242.871094 239.460938 C 242.996094 241.734375 242.171875 243.984375 240.609375 245.636719 C 239.042969 247.289062 236.84375 248.234375 234.570312 248.234375 Z M 145.90625 148.46875 C 144.4375 148.46875 143.21875 149.621094 143.140625 151.085938 L 138.214844 239.765625 C 138.175781 240.539062 138.441406 241.269531 138.96875 241.828125 C 139.5 242.382812 140.207031 242.695312 140.980469 242.695312 L 234.570312 242.695312 C 235.34375 242.695312 236.058594 242.382812 236.582031 241.828125 C 237.109375 241.269531 237.382812 240.539062 237.335938 239.765625 L 232.410156 151.085938 C 232.332031 149.621094 231.113281 148.46875 229.644531 148.46875 Z M 145.90625 148.46875 " fill-opacity="1" fill-rule="nonzero"/></g><g clip-path="url(#e25d48ada7)"><path fill="#fd288d" d="M 212.71875 165.230469 C 211.1875 165.230469 209.945312 163.988281 209.945312 162.457031 L 209.945312 143.4375 C 209.945312 131.210938 200.003906 121.265625 187.777344 121.265625 C 175.546875 121.265625 165.605469 131.210938 165.605469 143.4375 L 165.605469 162.457031 C 165.605469 163.988281 164.363281 165.230469 162.832031 165.230469 C 161.304688 165.230469 160.0625 163.988281 160.0625 162.457031 L 160.0625 143.4375 C 160.0625 128.15625 172.496094 115.722656 187.777344 115.722656 C 203.054688 115.722656 215.488281 128.15625 215.488281 143.4375 L 215.488281 162.457031 C 215.488281 163.988281 214.246094 165.230469 212.71875 165.230469 Z M 212.71875 165.230469 " fill-opacity="1" fill-rule="nonzero"/></g></svg>