<svg xmlns="http://www.w3.org/2000/svg" xmlns:xlink="http://www.w3.org/1999/xlink" width="500" zoomAndPan="magnify" viewBox="0 0 375 374.999991" height="500" preserveAspectRatio="xMidYMid meet" version="1.0"><defs><clipPath id="14e555dde8"><path d="M 117.765625 133.628906 L 257.265625 133.628906 L 257.265625 241.628906 L 117.765625 241.628906 Z M 117.765625 133.628906 " clip-rule="nonzero"/></clipPath></defs><g clip-path="url(#14e555dde8)"><path fill="#fd288d" d="M 254.550781 213.125 C 254.449219 213.253906 254.148438 213.550781 253.648438 213.472656 C 253.644531 213.472656 253.640625 213.472656 253.636719 213.472656 C 253.351562 213.425781 253.101562 213.246094 252.945312 212.988281 C 250.171875 208.269531 245.480469 205.074219 240.082031 204.21875 C 238.421875 203.957031 236.742188 203.921875 235.082031 204.117188 C 231.378906 204.554688 227.941406 206.101562 225.136719 208.582031 C 224.910156 208.785156 224.613281 208.871094 224.335938 208.828125 C 224.332031 208.828125 224.324219 208.828125 224.320312 208.828125 C 224.125 208.796875 223.953125 208.714844 223.8125 208.582031 C 223.808594 208.578125 223.808594 208.578125 223.804688 208.574219 C 223.800781 208.570312 223.796875 208.566406 223.792969 208.5625 C 223.542969 208.3125 223.441406 207.929688 223.539062 207.59375 C 223.597656 207.398438 223.601562 207.191406 223.550781 206.996094 L 216.234375 178.664062 C 216.097656 178.144531 215.617188 177.792969 215.082031 177.820312 L 205.203125 178.34375 C 205.417969 177.9375 205.554688 177.523438 205.609375 177.113281 C 205.609375 177.09375 205.613281 177.074219 205.617188 177.054688 C 205.621094 177.019531 205.621094 176.988281 205.625 176.957031 C 205.628906 176.921875 205.632812 176.886719 205.632812 176.851562 C 205.632812 176.824219 205.632812 176.800781 205.632812 176.773438 C 205.636719 176.734375 205.636719 176.691406 205.636719 176.652344 C 205.632812 176.628906 205.632812 176.609375 205.632812 176.585938 C 205.628906 176.542969 205.628906 176.5 205.625 176.457031 C 205.621094 176.4375 205.621094 176.417969 205.617188 176.398438 C 205.613281 176.351562 205.605469 176.308594 205.597656 176.261719 C 205.597656 176.242188 205.59375 176.226562 205.589844 176.207031 C 205.582031 176.164062 205.570312 176.117188 205.5625 176.074219 C 205.554688 176.054688 205.550781 176.039062 205.546875 176.019531 C 205.535156 175.976562 205.523438 175.933594 205.511719 175.890625 C 205.503906 175.871094 205.5 175.851562 205.492188 175.832031 C 205.476562 175.792969 205.460938 175.75 205.445312 175.707031 C 205.4375 175.691406 205.433594 175.671875 205.425781 175.652344 C 205.402344 175.605469 205.382812 175.554688 205.359375 175.507812 C 205.351562 175.5 205.347656 175.488281 205.34375 175.480469 C 205.308594 175.402344 205.265625 175.328125 205.226562 175.257812 C 205.21875 175.246094 205.210938 175.234375 205.207031 175.222656 C 205.167969 175.160156 205.132812 175.097656 205.09375 175.039062 C 205.089844 175.039062 205.089844 175.035156 205.089844 175.035156 L 217.84375 175.15625 C 218.585938 175.308594 219.101562 175.976562 219.050781 176.742188 C 219.042969 176.863281 219.054688 176.980469 219.085938 177.097656 L 221.109375 184.933594 C 221.226562 185.390625 221.617188 185.726562 222.089844 185.773438 C 226.9375 186.25 229.457031 188.785156 234.5625 196.152344 C 235.214844 197.09375 236.105469 198.949219 236.335938 200.105469 C 236.441406 200.632812 236.902344 201.011719 237.441406 201.011719 C 237.449219 201.011719 237.460938 201.011719 237.472656 201.011719 C 238.496094 201.011719 239.53125 201.09375 240.550781 201.253906 C 247.066406 202.285156 252.488281 206.460938 254.703125 212.148438 C 254.890625 212.628906 254.660156 212.992188 254.550781 213.125 Z M 237.148438 239.097656 C 228.890625 239.097656 222.054688 232.90625 221.035156 224.925781 C 221.035156 224.921875 221.035156 224.921875 221.035156 224.921875 C 221.019531 224.792969 221.003906 224.667969 220.992188 224.539062 C 220.992188 224.527344 220.988281 224.515625 220.988281 224.503906 C 220.976562 224.386719 220.964844 224.269531 220.957031 224.152344 C 220.957031 224.132812 220.953125 224.109375 220.953125 224.089844 C 220.945312 223.980469 220.9375 223.871094 220.929688 223.761719 C 220.929688 223.734375 220.925781 223.703125 220.925781 223.675781 C 220.921875 223.570312 220.917969 223.464844 220.914062 223.359375 C 220.914062 223.328125 220.910156 223.296875 220.910156 223.265625 C 220.90625 223.128906 220.90625 222.992188 220.90625 222.855469 C 220.90625 222.722656 220.90625 222.589844 220.910156 222.460938 C 220.914062 222.351562 220.917969 222.238281 220.921875 222.128906 C 221.304688 213.507812 228.433594 206.613281 237.148438 206.613281 C 246.101562 206.613281 253.386719 213.898438 253.386719 222.855469 C 253.386719 231.8125 246.101562 239.097656 237.148438 239.097656 Z M 219.441406 228.21875 L 185.386719 228.21875 C 185.492188 227.375 185.546875 226.523438 185.546875 225.671875 C 185.546875 222.402344 184.75 219.15625 183.238281 216.277344 C 181.925781 212.824219 179.628906 209.867188 176.589844 207.726562 C 174.820312 206.480469 172.875 205.566406 170.820312 205.007812 L 179.34375 205.007812 L 189.480469 222.5625 C 189.679688 222.910156 190.054688 223.125 190.457031 223.125 L 218.65625 223.125 C 218.65625 223.152344 218.65625 223.179688 218.65625 223.203125 C 218.660156 223.371094 218.664062 223.535156 218.671875 223.699219 C 218.671875 223.730469 218.675781 223.761719 218.675781 223.796875 C 218.683594 223.980469 218.699219 224.164062 218.710938 224.347656 C 218.71875 224.421875 218.726562 224.496094 218.730469 224.570312 C 218.742188 224.683594 218.753906 224.792969 218.765625 224.90625 C 218.777344 224.992188 218.785156 225.078125 218.796875 225.164062 C 218.808594 225.277344 218.824219 225.386719 218.84375 225.5 C 218.863281 225.652344 218.886719 225.808594 218.914062 225.960938 C 218.925781 226.035156 218.9375 226.109375 218.953125 226.183594 C 218.972656 226.296875 218.996094 226.40625 219.015625 226.519531 C 219.027344 226.578125 219.042969 226.636719 219.054688 226.691406 C 219.136719 227.082031 219.230469 227.46875 219.339844 227.855469 C 219.351562 227.890625 219.359375 227.929688 219.371094 227.96875 C 219.394531 228.050781 219.417969 228.136719 219.441406 228.21875 Z M 165.949219 239.097656 C 156.996094 239.097656 149.707031 231.8125 149.707031 222.855469 C 149.707031 215.160156 155.085938 208.699219 162.28125 207.03125 C 162.285156 207.03125 162.289062 207.03125 162.292969 207.03125 C 162.414062 207 162.535156 206.976562 162.65625 206.949219 C 162.675781 206.945312 162.699219 206.941406 162.71875 206.9375 C 162.824219 206.917969 162.925781 206.898438 163.03125 206.878906 C 163.066406 206.871094 163.097656 206.867188 163.132812 206.859375 C 163.226562 206.84375 163.316406 206.828125 163.410156 206.8125 C 163.453125 206.804688 163.496094 206.800781 163.542969 206.792969 C 163.625 206.78125 163.710938 206.769531 163.792969 206.757812 C 163.84375 206.75 163.894531 206.746094 163.945312 206.738281 C 164.023438 206.726562 164.101562 206.71875 164.183594 206.710938 C 164.238281 206.703125 164.292969 206.699219 164.34375 206.695312 C 164.421875 206.6875 164.5 206.679688 164.578125 206.671875 C 164.632812 206.667969 164.691406 206.664062 164.746094 206.660156 C 164.824219 206.652344 164.90625 206.648438 164.984375 206.644531 C 165.039062 206.640625 165.089844 206.636719 165.144531 206.632812 C 165.234375 206.628906 165.320312 206.628906 165.410156 206.625 C 165.457031 206.621094 165.5 206.621094 165.546875 206.621094 C 165.679688 206.617188 165.816406 206.613281 165.949219 206.613281 C 166.140625 206.613281 166.332031 206.617188 166.523438 206.625 C 166.558594 206.625 166.59375 206.628906 166.628906 206.628906 C 171.195312 206.824219 175.429688 208.960938 178.324219 212.347656 C 178.335938 212.363281 178.347656 212.378906 178.359375 212.390625 C 178.472656 212.523438 178.582031 212.65625 178.6875 212.789062 C 178.726562 212.839844 178.761719 212.886719 178.800781 212.9375 C 178.871094 213.027344 178.9375 213.117188 179.007812 213.207031 C 179.066406 213.285156 179.121094 213.363281 179.179688 213.445312 C 179.199219 213.472656 179.21875 213.5 179.238281 213.527344 C 179.371094 213.714844 179.5 213.910156 179.628906 214.105469 C 179.628906 214.105469 179.628906 214.109375 179.628906 214.109375 C 181.25 216.636719 182.191406 219.636719 182.191406 222.855469 C 182.191406 231.8125 174.90625 239.097656 165.949219 239.097656 Z M 145.039062 225.671875 C 145.039062 226.523438 145.09375 227.375 145.199219 228.21875 L 141.34375 228.21875 L 145.921875 205.007812 L 161.085938 205.007812 C 161.023438 205.027344 160.957031 205.046875 160.894531 205.0625 C 160.894531 205.0625 160.890625 205.0625 160.890625 205.0625 C 158.109375 205.855469 155.535156 207.289062 153.371094 209.300781 C 150.855469 211.136719 148.765625 213.558594 147.328125 216.3125 C 145.832031 219.179688 145.039062 222.417969 145.039062 225.671875 Z M 142.144531 200.109375 C 142.144531 198.816406 143.078125 197.738281 144.308594 197.511719 L 154.425781 197.511719 C 154.695312 197.511719 154.960938 197.496094 155.222656 197.464844 L 180.578125 197.464844 C 182.035156 197.464844 183.21875 198.652344 183.21875 200.109375 C 183.21875 201.570312 182.035156 202.753906 180.578125 202.753906 L 144.789062 202.753906 C 143.332031 202.753906 142.144531 201.570312 142.144531 200.109375 Z M 128.054688 190.253906 L 128.054688 168.886719 C 128.054688 168.628906 128.074219 168.371094 128.113281 168.117188 C 128.160156 167.792969 128.066406 167.464844 127.851562 167.214844 C 127.640625 166.964844 127.328125 166.820312 127 166.820312 L 121.472656 166.820312 C 120.671875 166.820312 120.015625 166.167969 120.015625 165.363281 L 120.015625 162.332031 C 120.015625 161.527344 120.671875 160.875 121.472656 160.875 L 166.007812 160.875 C 166.808594 160.875 167.464844 161.527344 167.464844 162.332031 L 167.464844 165.363281 C 167.464844 166.167969 166.808594 166.820312 166.007812 166.820312 L 160.484375 166.820312 C 160.152344 166.820312 159.839844 166.964844 159.628906 167.214844 C 159.414062 167.464844 159.320312 167.792969 159.367188 168.117188 C 159.40625 168.371094 159.429688 168.628906 159.429688 168.886719 L 159.429688 190.253906 C 159.429688 192.789062 157.53125 194.890625 155.085938 195.214844 L 144.789062 195.214844 C 144.566406 195.214844 144.351562 195.230469 144.136719 195.257812 L 133.054688 195.257812 C 130.296875 195.257812 128.054688 193.015625 128.054688 190.253906 Z M 169.207031 184.105469 L 173.976562 165.402344 C 174.734375 162.429688 177.261719 160.363281 180.148438 160.046875 C 180.785156 160.164062 181.441406 160.222656 182.113281 160.222656 C 182.289062 160.222656 182.464844 160.21875 182.636719 160.210938 C 182.65625 160.214844 182.679688 160.21875 182.699219 160.226562 C 185.535156 160.949219 187.628906 163.289062 188.03125 166.191406 C 188.054688 166.351562 188.109375 166.503906 188.195312 166.640625 C 188.4375 167.015625 188.664062 167.425781 188.878906 167.859375 C 190.625 171.714844 194.484375 174.332031 198.714844 174.527344 C 199.59375 174.59375 200.378906 174.730469 201.042969 174.929688 C 201.058594 174.9375 201.078125 174.941406 201.09375 174.949219 C 201.738281 175.144531 202.535156 175.488281 203.03125 176.046875 C 203.035156 176.050781 203.039062 176.058594 203.042969 176.0625 C 203.113281 176.140625 203.175781 176.226562 203.234375 176.316406 C 203.238281 176.324219 203.246094 176.335938 203.25 176.347656 C 203.277344 176.390625 203.304688 176.433594 203.324219 176.480469 C 203.328125 176.488281 203.332031 176.492188 203.335938 176.5 C 203.335938 176.503906 203.339844 176.511719 203.34375 176.519531 C 203.351562 176.539062 203.359375 176.558594 203.363281 176.578125 C 203.40625 176.746094 203.367188 176.988281 203.230469 177.261719 C 203.226562 177.261719 203.226562 177.265625 203.226562 177.269531 C 203.207031 177.308594 203.183594 177.347656 203.160156 177.386719 C 203.152344 177.398438 203.148438 177.40625 203.140625 177.417969 C 202.910156 177.796875 202.503906 178.21875 201.890625 178.589844 C 201.859375 178.609375 201.828125 178.628906 201.800781 178.652344 C 200.960938 179.132812 199.839844 179.453125 198.515625 179.394531 C 194.640625 179.222656 190.933594 177.644531 188.074219 174.945312 C 187.785156 174.671875 187.371094 174.574219 186.988281 174.683594 C 186.605469 174.796875 186.308594 175.101562 186.210938 175.488281 L 184.039062 184.007812 C 183.898438 184.550781 184.183594 185.117188 184.707031 185.328125 L 198.121094 190.757812 C 198.167969 190.773438 198.214844 190.789062 198.265625 190.804688 C 198.726562 190.921875 199.152344 191.117188 199.539062 191.394531 C 199.613281 191.445312 199.695312 191.488281 199.777344 191.523438 C 200.757812 191.910156 201.519531 192.660156 201.921875 193.636719 L 209.757812 212.746094 C 210.148438 213.695312 210.144531 214.738281 209.75 215.6875 C 209.351562 216.632812 208.613281 217.367188 207.664062 217.757812 C 205.703125 218.5625 203.453125 217.621094 202.652344 215.660156 L 195.625 198.527344 C 195.488281 198.199219 195.207031 197.949219 194.859375 197.863281 L 176.351562 193.144531 C 176.289062 193.128906 176.226562 193.109375 176.164062 193.09375 C 176.074219 193.0625 175.976562 193.046875 175.878906 193.042969 C 175.375 193.023438 174.875 192.949219 174.386719 192.828125 C 170.554688 191.847656 168.230469 187.9375 169.207031 184.105469 Z M 173.484375 149.34375 C 173.484375 148.164062 173.730469 146.996094 174.195312 145.917969 L 190.03125 145.917969 C 190.496094 146.996094 190.738281 148.164062 190.738281 149.34375 C 190.738281 153.867188 187.242188 157.582031 182.808594 157.941406 C 181.964844 157.765625 181.113281 157.714844 180.269531 157.769531 C 176.394531 156.925781 173.484375 153.46875 173.484375 149.34375 Z M 181.636719 135.894531 C 183.871094 135.894531 189.195312 136.375 190.414062 140.84375 C 190.546875 141.335938 190.992188 141.675781 191.5 141.675781 L 197.914062 141.675781 C 198.449219 141.675781 198.882812 142.109375 198.882812 142.644531 C 198.882812 143.179688 198.449219 143.613281 197.914062 143.613281 L 191.5 143.613281 C 191.382812 143.613281 191.273438 143.632812 191.164062 143.664062 L 191.027344 143.664062 C 190.929688 143.636719 190.824219 143.621094 190.714844 143.621094 L 173.507812 143.621094 C 173.398438 143.621094 173.292969 143.636719 173.195312 143.664062 L 172.695312 143.664062 C 172.644531 143.328125 172.617188 142.984375 172.617188 142.644531 C 172.617188 139.457031 176.476562 135.894531 181.636719 135.894531 Z M 222.03125 209.976562 C 222.140625 210.167969 222.308594 210.328125 222.511719 210.429688 C 222.703125 210.578125 222.914062 210.699219 223.132812 210.800781 C 220.746094 213.570312 219.167969 217.046875 218.757812 220.875 L 191.105469 220.875 L 181.847656 204.839844 C 183.933594 204.277344 185.472656 202.371094 185.472656 200.109375 C 185.472656 199.203125 185.222656 198.351562 184.792969 197.621094 L 193.753906 199.90625 L 200.566406 216.515625 C 201.53125 218.871094 203.8125 220.296875 206.210938 220.296875 C 206.980469 220.296875 207.761719 220.152344 208.515625 219.84375 C 211.625 218.566406 213.117188 215 211.84375 211.890625 L 204.003906 192.78125 C 203.386719 191.273438 202.226562 190.105469 200.730469 189.476562 C 200.171875 189.097656 199.554688 188.816406 198.898438 188.640625 L 186.464844 183.609375 L 187.945312 177.796875 C 190.964844 180.125 194.621094 181.476562 198.414062 181.644531 C 200.128906 181.722656 201.5625 181.332031 202.683594 180.734375 L 214.28125 180.121094 L 221.300781 207.292969 C 221.128906 208.25 221.394531 209.234375 222.03125 209.976562 Z M 232.074219 175.886719 C 232.785156 177.742188 232.785156 179.648438 232.785156 181.5 C 232.785156 183.503906 232.785156 185.410156 232.09375 187.117188 C 229.300781 186.773438 227.128906 184.386719 227.128906 181.5 C 227.128906 178.621094 229.289062 176.238281 232.074219 175.886719 Z M 240.90625 199.027344 C 240.046875 198.894531 239.175781 198.808594 238.308594 198.773438 C 237.867188 197.402344 237.058594 195.800781 236.414062 194.867188 C 234.929688 192.722656 233.617188 190.910156 232.351562 189.402344 C 232.496094 189.410156 232.640625 189.414062 232.789062 189.414062 C 233.207031 189.414062 233.589844 189.183594 233.785156 188.816406 C 235.039062 186.457031 235.039062 183.9375 235.039062 181.5 C 235.039062 179.277344 235.039062 176.753906 233.804688 174.21875 C 233.613281 173.832031 233.21875 173.585938 232.789062 173.585938 C 228.425781 173.585938 224.878906 177.136719 224.878906 181.5 C 224.878906 182.429688 225.039062 183.320312 225.335938 184.148438 C 224.632812 183.917969 223.890625 183.746094 223.097656 183.628906 L 221.308594 176.695312 C 221.335938 174.820312 220 173.214844 218.125 172.917969 C 218.070312 172.910156 218.015625 172.902344 217.960938 172.902344 L 201.613281 172.746094 C 200.691406 172.480469 199.730469 172.34375 198.867188 172.277344 C 198.855469 172.277344 198.84375 172.277344 198.832031 172.273438 C 195.429688 172.125 192.324219 170.019531 190.921875 166.914062 C 190.917969 166.90625 190.914062 166.894531 190.910156 166.882812 C 190.695312 166.449219 190.464844 166.027344 190.226562 165.636719 C 189.800781 163.050781 188.34375 160.824219 186.261719 159.402344 C 190.207031 157.765625 192.992188 153.875 192.992188 149.34375 C 192.992188 148.160156 192.796875 146.984375 192.421875 145.867188 L 197.914062 145.867188 C 199.691406 145.867188 201.136719 144.421875 201.136719 142.644531 C 201.136719 140.867188 199.691406 139.421875 197.914062 139.421875 L 192.3125 139.421875 C 190.890625 135.785156 186.972656 133.640625 181.636719 133.640625 C 178.726562 133.640625 175.929688 134.601562 173.757812 136.347656 C 171.601562 138.078125 170.367188 140.375 170.367188 142.644531 C 170.367188 143.472656 170.480469 144.296875 170.703125 145.09375 C 170.839844 145.582031 171.28125 145.917969 171.785156 145.917969 C 171.421875 147.019531 171.230469 148.179688 171.230469 149.34375 C 171.230469 153.363281 173.425781 156.882812 176.675781 158.765625 C 176.484375 158.863281 176.296875 158.960938 176.113281 159.070312 C 173.949219 160.355469 172.414062 162.40625 171.792969 164.847656 L 167.023438 183.546875 C 166.402344 185.988281 166.769531 188.523438 168.054688 190.6875 C 169.339844 192.851562 171.390625 194.386719 173.832031 195.007812 C 174.179688 195.097656 174.535156 195.164062 174.890625 195.214844 L 159.714844 195.214844 C 160.933594 193.914062 161.679688 192.171875 161.679688 190.253906 L 161.679688 169.074219 L 166.007812 169.074219 C 168.050781 169.074219 169.714844 167.410156 169.714844 165.363281 L 169.714844 162.332031 C 169.714844 160.285156 168.050781 158.621094 166.007812 158.621094 L 121.472656 158.621094 C 119.429688 158.621094 117.765625 160.285156 117.765625 162.332031 L 117.765625 165.363281 C 117.765625 167.410156 119.429688 169.074219 121.472656 169.074219 L 125.800781 169.074219 L 125.800781 190.253906 C 125.800781 194.257812 129.054688 197.511719 133.054688 197.511719 L 140.640625 197.511719 C 140.167969 198.265625 139.890625 199.15625 139.890625 200.109375 C 139.890625 202.421875 141.5 204.359375 143.652344 204.875 L 138.867188 229.125 C 138.800781 229.457031 138.886719 229.800781 139.101562 230.058594 C 139.316406 230.320312 139.632812 230.472656 139.972656 230.472656 L 146.519531 230.472656 C 146.855469 230.472656 147.175781 230.320312 147.390625 230.0625 C 147.605469 229.800781 147.691406 229.460938 147.625 229.128906 C 147.40625 227.992188 147.292969 226.832031 147.292969 225.671875 C 147.292969 224.855469 147.351562 224.046875 147.460938 223.25 C 147.671875 233.265625 155.882812 241.351562 165.949219 241.351562 C 173.671875 241.351562 180.300781 236.59375 183.066406 229.859375 C 183.101562 229.929688 183.144531 230 183.195312 230.0625 C 183.410156 230.320312 183.730469 230.472656 184.066406 230.472656 L 220.292969 230.472656 C 223.203125 236.882812 229.660156 241.351562 237.148438 241.351562 C 247.34375 241.351562 255.640625 233.054688 255.640625 222.855469 C 255.640625 220.324219 255.128906 217.914062 254.207031 215.714844 C 255.023438 215.613281 255.769531 215.203125 256.308594 214.539062 C 257.042969 213.625 257.226562 212.425781 256.800781 211.332031 C 254.296875 204.898438 248.207031 200.1875 240.90625 199.027344 " fill-opacity="1" fill-rule="nonzero"/></g></svg>