<svg xmlns="http://www.w3.org/2000/svg" xmlns:xlink="http://www.w3.org/1999/xlink" width="500" zoomAndPan="magnify" viewBox="0 0 375 374.999991" height="500" preserveAspectRatio="xMidYMid meet" version="1.0"><defs><clipPath id="e95435cd69"><path d="M 116.226562 126.398438 L 238.429688 126.398438 L 238.429688 248.59375 L 116.226562 248.59375 Z M 116.226562 126.398438 " clip-rule="nonzero"/></clipPath><clipPath id="a7c2c5b670"><path d="M 189.824219 198.734375 L 222.929688 198.734375 L 222.929688 248.59375 L 189.824219 248.59375 Z M 189.824219 198.734375 " clip-rule="nonzero"/></clipPath><clipPath id="ff2899ddea"><path d="M 228.214844 198.734375 L 258.726562 198.734375 L 258.726562 248.59375 L 228.214844 248.59375 Z M 228.214844 198.734375 " clip-rule="nonzero"/></clipPath></defs><path fill="#fd288d" d="M 137.761719 212.636719 C 138.367188 212.636719 138.960938 212.390625 139.390625 211.960938 C 139.816406 211.535156 140.0625 210.941406 140.0625 210.335938 C 140.0625 209.730469 139.816406 209.140625 139.390625 208.710938 C 138.960938 208.28125 138.367188 208.039062 137.761719 208.039062 C 137.15625 208.039062 136.566406 208.28125 136.136719 208.710938 C 135.707031 209.140625 135.464844 209.730469 135.464844 210.335938 C 135.464844 210.941406 135.707031 211.535156 136.136719 211.960938 C 136.566406 212.390625 137.15625 212.636719 137.761719 212.636719 " fill-opacity="1" fill-rule="nonzero"/><path fill="#fd288d" d="M 215.261719 163.027344 C 214.832031 163.457031 214.585938 164.050781 214.585938 164.65625 C 214.585938 165.261719 214.832031 165.851562 215.261719 166.28125 C 215.6875 166.707031 216.28125 166.953125 216.886719 166.953125 C 217.492188 166.953125 218.085938 166.707031 218.511719 166.28125 C 218.941406 165.851562 219.1875 165.261719 219.1875 164.65625 C 219.1875 164.050781 218.941406 163.457031 218.511719 163.027344 C 218.085938 162.601562 217.492188 162.355469 216.886719 162.355469 C 216.28125 162.355469 215.6875 162.601562 215.261719 163.027344 " fill-opacity="1" fill-rule="nonzero"/><path fill="#fd288d" d="M 152.859375 146.308594 C 152.429688 146.734375 152.183594 147.328125 152.183594 147.933594 C 152.183594 148.539062 152.429688 149.132812 152.859375 149.558594 C 153.285156 149.988281 153.878906 150.234375 154.484375 150.234375 C 155.089844 150.234375 155.683594 149.988281 156.109375 149.558594 C 156.539062 149.132812 156.785156 148.539062 156.785156 147.933594 C 156.785156 147.328125 156.539062 146.734375 156.109375 146.308594 C 155.683594 145.878906 155.089844 145.632812 154.484375 145.632812 C 153.878906 145.632812 153.285156 145.878906 152.859375 146.308594 " fill-opacity="1" fill-rule="nonzero"/><path fill="#fd288d" d="M 139.390625 163.027344 C 138.960938 162.601562 138.367188 162.355469 137.761719 162.355469 C 137.15625 162.355469 136.566406 162.601562 136.136719 163.027344 C 135.707031 163.457031 135.464844 164.050781 135.464844 164.65625 C 135.464844 165.261719 135.707031 165.851562 136.136719 166.28125 C 136.566406 166.707031 137.15625 166.953125 137.761719 166.953125 C 138.367188 166.953125 138.960938 166.707031 139.390625 166.28125 C 139.816406 165.851562 140.0625 165.261719 140.0625 164.65625 C 140.0625 164.050781 139.816406 163.457031 139.390625 163.027344 " fill-opacity="1" fill-rule="nonzero"/><path fill="#fd288d" d="M 156.109375 228.683594 C 156.539062 228.253906 156.785156 227.660156 156.785156 227.058594 C 156.785156 226.453125 156.539062 225.859375 156.109375 225.429688 C 155.683594 225.003906 155.089844 224.757812 154.484375 224.757812 C 153.878906 224.757812 153.285156 225.003906 152.859375 225.429688 C 152.429688 225.859375 152.183594 226.453125 152.183594 227.058594 C 152.183594 227.660156 152.429688 228.253906 152.859375 228.683594 C 153.285156 229.113281 153.878906 229.355469 154.484375 229.355469 C 155.089844 229.355469 155.683594 229.113281 156.109375 228.683594 " fill-opacity="1" fill-rule="nonzero"/><path fill="#fd288d" d="M 198.539062 146.308594 C 198.113281 146.734375 197.867188 147.328125 197.867188 147.933594 C 197.867188 148.539062 198.113281 149.132812 198.539062 149.558594 C 198.96875 149.988281 199.558594 150.234375 200.164062 150.234375 C 200.769531 150.234375 201.363281 149.988281 201.792969 149.558594 C 202.21875 149.132812 202.464844 148.539062 202.464844 147.933594 C 202.464844 147.328125 202.21875 146.734375 201.792969 146.308594 C 201.363281 145.878906 200.769531 145.632812 200.164062 145.632812 C 199.558594 145.632812 198.96875 145.878906 198.539062 146.308594 " fill-opacity="1" fill-rule="nonzero"/><path fill="#fd288d" d="M 179.625 234.652344 L 179.625 227.300781 C 179.625 226.03125 178.59375 225.003906 177.324219 225.003906 C 176.054688 225.003906 175.023438 226.03125 175.023438 227.300781 L 175.023438 234.652344 C 175.023438 235.921875 176.054688 236.949219 177.324219 236.949219 C 178.59375 236.949219 179.625 235.921875 179.625 234.652344 " fill-opacity="1" fill-rule="nonzero"/><path fill="#fd288d" d="M 175.023438 140.339844 L 175.023438 147.691406 C 175.023438 148.960938 176.054688 149.988281 177.324219 149.988281 C 178.59375 149.988281 179.625 148.960938 179.625 147.691406 L 179.625 140.339844 C 179.625 139.070312 178.59375 138.042969 177.324219 138.042969 C 176.054688 138.042969 175.023438 139.070312 175.023438 140.339844 " fill-opacity="1" fill-rule="nonzero"/><path fill="#fd288d" d="M 139.816406 187.496094 C 139.816406 186.226562 138.789062 185.195312 137.519531 185.195312 L 130.171875 185.195312 C 128.898438 185.195312 127.871094 186.226562 127.871094 187.496094 C 127.871094 188.765625 128.898438 189.796875 130.171875 189.796875 L 137.519531 189.796875 C 138.789062 189.796875 139.816406 188.765625 139.816406 187.496094 " fill-opacity="1" fill-rule="nonzero"/><path fill="#fd288d" d="M 226.777344 187.496094 C 226.777344 186.226562 225.75 185.195312 224.480469 185.195312 L 217.128906 185.195312 C 215.859375 185.195312 214.832031 186.226562 214.832031 187.496094 C 214.832031 188.765625 215.859375 189.796875 217.128906 189.796875 L 224.480469 189.796875 C 225.75 189.796875 226.777344 188.765625 226.777344 187.496094 " fill-opacity="1" fill-rule="nonzero"/><path fill="#fd288d" d="M 177.324219 190.15625 C 176.46875 190.15625 175.6875 189.757812 175.179688 189.066406 C 174.84375 188.609375 174.667969 188.066406 174.667969 187.496094 C 174.667969 186.03125 175.859375 184.835938 177.324219 184.835938 C 178.34375 184.835938 179.261719 185.414062 179.707031 186.316406 C 179.714844 186.328125 179.71875 186.339844 179.722656 186.347656 C 179.742188 186.386719 179.757812 186.421875 179.773438 186.460938 C 179.914062 186.789062 179.984375 187.136719 179.984375 187.496094 C 179.984375 188.960938 178.789062 190.15625 177.324219 190.15625 Z M 184.320312 181.351562 L 182.457031 182.359375 C 181.660156 181.566406 180.691406 180.96875 179.625 180.613281 L 179.625 157.34375 C 179.625 156.074219 178.59375 155.046875 177.324219 155.046875 C 176.054688 155.046875 175.023438 156.074219 175.023438 157.34375 L 175.023438 180.613281 C 172.148438 181.574219 170.066406 184.296875 170.066406 187.496094 C 170.066406 188.011719 170.121094 188.519531 170.226562 189.011719 L 150.105469 200.269531 C 148.996094 200.890625 148.601562 202.292969 149.21875 203.398438 C 149.640625 204.152344 150.421875 204.574219 151.230469 204.574219 C 151.609375 204.574219 151.996094 204.480469 152.351562 204.28125 L 172.566406 192.972656 C 173.289062 193.597656 174.125 194.074219 175.023438 194.375 L 175.023438 197.339844 C 175.023438 198.609375 176.054688 199.636719 177.324219 199.636719 C 178.59375 199.636719 179.625 198.609375 179.625 197.339844 L 179.625 194.378906 C 182.5 193.414062 184.582031 190.695312 184.582031 187.496094 C 184.582031 187.152344 184.558594 186.8125 184.511719 186.476562 L 186.507812 185.394531 C 187.625 184.792969 188.039062 183.394531 187.4375 182.28125 C 186.832031 181.164062 185.4375 180.746094 184.320312 181.351562 " fill-opacity="1" fill-rule="nonzero"/><g clip-path="url(#e95435cd69)"><path fill="#fd288d" d="M 177.324219 243.789062 C 146.285156 243.789062 121.03125 218.535156 121.03125 187.496094 C 121.03125 156.457031 146.285156 131.203125 177.324219 131.203125 C 208.363281 131.203125 233.617188 156.457031 233.617188 187.496094 C 233.617188 188.824219 234.691406 189.898438 236.019531 189.898438 C 237.347656 189.898438 238.421875 188.824219 238.421875 187.496094 C 238.421875 179.25 236.808594 171.246094 233.621094 163.710938 C 230.542969 156.4375 226.140625 149.902344 220.527344 144.292969 C 214.917969 138.683594 208.382812 134.277344 201.109375 131.199219 C 193.574219 128.011719 185.570312 126.398438 177.324219 126.398438 C 169.078125 126.398438 161.074219 128.011719 153.542969 131.199219 C 146.265625 134.277344 139.730469 138.683594 134.121094 144.292969 C 128.511719 149.902344 124.105469 156.4375 121.027344 163.710938 C 117.839844 171.246094 116.226562 179.25 116.226562 187.496094 C 116.226562 195.742188 117.839844 203.746094 121.027344 211.277344 C 124.105469 218.554688 128.511719 225.089844 134.121094 230.699219 C 139.730469 236.308594 146.265625 240.714844 153.542969 243.792969 C 161.074219 246.980469 169.078125 248.59375 177.324219 248.59375 C 178.652344 248.59375 179.726562 247.519531 179.726562 246.191406 C 179.726562 244.863281 178.652344 243.789062 177.324219 243.789062 " fill-opacity="1" fill-rule="nonzero"/></g><g clip-path="url(#a7c2c5b670)"><path fill="#fd288d" d="M 211.917969 228.070312 L 197.089844 228.070312 L 211.917969 208.335938 Z M 220.492188 228.070312 L 216.726562 228.070312 L 216.726562 201.136719 C 216.726562 200.101562 216.0625 199.183594 215.082031 198.859375 C 214.101562 198.53125 213.023438 198.867188 212.398438 199.695312 L 190.359375 229.03125 C 189.8125 229.757812 189.722656 230.734375 190.128906 231.546875 C 190.535156 232.363281 191.367188 232.878906 192.277344 232.878906 L 211.917969 232.878906 L 211.917969 246.191406 C 211.917969 247.519531 212.996094 248.59375 214.320312 248.59375 C 215.648438 248.59375 216.726562 247.519531 216.726562 246.191406 L 216.726562 232.878906 L 220.492188 232.878906 C 221.820312 232.878906 222.898438 231.800781 222.898438 230.472656 C 222.898438 229.148438 221.820312 228.070312 220.492188 228.070312 " fill-opacity="1" fill-rule="nonzero"/></g><g clip-path="url(#ff2899ddea)"><path fill="#fd288d" d="M 253.859375 234.921875 C 253.851562 235.078125 253.84375 235.230469 253.832031 235.382812 C 253.808594 235.609375 253.78125 235.835938 253.742188 236.058594 C 252.980469 240.371094 248.679688 243.6875 243.5 243.6875 C 238.324219 243.6875 234.023438 240.371094 233.261719 236.058594 C 233.222656 235.835938 233.191406 235.609375 233.171875 235.382812 C 233.160156 235.230469 233.148438 235.078125 233.144531 234.921875 C 233.144531 234.84375 233.144531 234.769531 233.144531 234.691406 C 233.144531 232.207031 234.328125 229.9375 236.371094 228.171875 C 238.296875 226.507812 240.667969 225.273438 243.5 225.195312 C 246.695312 225.238281 249.285156 227.015625 250.632812 228.171875 C 252.683594 229.929688 253.859375 232.207031 253.859375 234.691406 C 253.859375 234.769531 253.859375 234.84375 253.859375 234.921875 Z M 234.15625 211.734375 C 234.15625 211.386719 234.179688 211.042969 234.230469 210.703125 C 234.25 210.570312 234.273438 210.4375 234.300781 210.304688 C 234.316406 210.238281 234.328125 210.171875 234.34375 210.105469 C 235.21875 206.421875 238.992188 203.640625 243.5 203.640625 C 248.011719 203.640625 251.785156 206.421875 252.660156 210.105469 C 252.675781 210.171875 252.6875 210.238281 252.703125 210.304688 C 252.730469 210.4375 252.753906 210.570312 252.773438 210.703125 C 252.824219 211.042969 252.847656 211.386719 252.847656 211.734375 C 252.847656 214.820312 250.765625 217.683594 247.542969 219.027344 C 247.503906 219.046875 247.464844 219.0625 247.425781 219.082031 C 246.464844 219.542969 245.085938 220.121094 243.5 220.183594 C 241.960938 220.101562 240.539062 219.542969 239.578125 219.082031 C 239.539062 219.0625 239.5 219.046875 239.460938 219.027344 C 236.238281 217.683594 234.15625 214.820312 234.15625 211.734375 Z M 253.761719 224.386719 C 252.988281 223.75 252.140625 223.183594 251.246094 222.703125 C 251.230469 222.695312 251.21875 222.6875 251.203125 222.675781 C 252.863281 221.707031 254.289062 220.429688 255.390625 218.914062 C 256.9375 216.785156 257.757812 214.300781 257.757812 211.734375 C 257.757812 211.511719 257.75 211.292969 257.738281 211.074219 C 257.5625 207.800781 256.066406 204.757812 253.480469 202.445312 C 250.800781 200.050781 247.257812 198.734375 243.5 198.734375 C 239.746094 198.734375 236.203125 200.050781 233.523438 202.445312 C 230.9375 204.757812 229.441406 207.800781 229.265625 211.074219 C 229.253906 211.292969 229.246094 211.511719 229.246094 211.734375 C 229.246094 214.300781 230.066406 216.785156 231.613281 218.914062 C 232.714844 220.429688 234.140625 221.707031 235.796875 222.675781 C 235.785156 222.6875 235.769531 222.695312 235.757812 222.703125 C 234.859375 223.183594 234.015625 223.75 233.242188 224.386719 C 230.058594 227.015625 228.234375 230.773438 228.234375 234.691406 C 228.234375 235.167969 228.261719 235.640625 228.3125 236.113281 C 228.335938 236.328125 228.367188 236.546875 228.402344 236.761719 C 228.410156 236.800781 228.414062 236.839844 228.421875 236.878906 C 228.617188 238.015625 228.96875 239.128906 229.476562 240.199219 C 230.230469 241.789062 231.289062 243.21875 232.628906 244.453125 C 232.6875 244.507812 232.746094 244.5625 232.804688 244.617188 C 232.972656 244.765625 233.140625 244.910156 233.3125 245.050781 C 233.328125 245.0625 233.339844 245.074219 233.355469 245.085938 C 233.367188 245.09375 233.378906 245.101562 233.390625 245.109375 C 236.179688 247.363281 239.742188 248.59375 243.5 248.59375 C 247.261719 248.59375 250.824219 247.363281 253.613281 245.109375 C 253.625 245.101562 253.636719 245.09375 253.648438 245.085938 C 253.664062 245.074219 253.675781 245.0625 253.6875 245.050781 C 253.859375 244.910156 254.03125 244.765625 254.195312 244.617188 C 254.257812 244.5625 254.316406 244.507812 254.375 244.453125 C 255.714844 243.21875 256.773438 241.789062 257.527344 240.199219 C 258.03125 239.128906 258.382812 238.015625 258.582031 236.878906 C 258.589844 236.839844 258.59375 236.800781 258.601562 236.761719 C 258.65625 236.429688 258.695312 236.09375 258.726562 235.757812 C 258.753906 235.40625 258.769531 235.050781 258.769531 234.691406 C 258.769531 230.773438 256.945312 227.015625 253.761719 224.386719 " fill-opacity="1" fill-rule="nonzero"/></g></svg>