<svg xmlns="http://www.w3.org/2000/svg" xmlns:xlink="http://www.w3.org/1999/xlink" width="500" zoomAndPan="magnify" viewBox="0 0 375 374.999991" height="500" preserveAspectRatio="xMidYMid meet" version="1.0"><defs><clipPath id="203d7ba0f7"><path d="M 123 123 L 256 123 L 256 252 L 123 252 Z M 123 123 " clip-rule="nonzero"/></clipPath><clipPath id="e97fb97e0b"><path d="M 111.035156 127.378906 L 249.800781 113.09375 L 263.625 247.382812 L 124.859375 261.667969 Z M 111.035156 127.378906 " clip-rule="nonzero"/></clipPath><clipPath id="17704c6f76"><path d="M 111.035156 127.378906 L 249.800781 113.09375 L 263.625 247.382812 L 124.859375 261.667969 Z M 111.035156 127.378906 " clip-rule="nonzero"/></clipPath><clipPath id="6d4972c5b7"><path d="M 175 209 L 218 209 L 218 215 L 175 215 Z M 175 209 " clip-rule="nonzero"/></clipPath><clipPath id="38bdf766c2"><path d="M 111.035156 127.378906 L 249.800781 113.09375 L 263.625 247.382812 L 124.859375 261.667969 Z M 111.035156 127.378906 " clip-rule="nonzero"/></clipPath><clipPath id="7f08931e32"><path d="M 111.035156 127.378906 L 249.800781 113.09375 L 263.625 247.382812 L 124.859375 261.667969 Z M 111.035156 127.378906 " clip-rule="nonzero"/></clipPath><clipPath id="3326edd6c5"><path d="M 175 216 L 217 216 L 217 222 L 175 222 Z M 175 216 " clip-rule="nonzero"/></clipPath><clipPath id="279b339979"><path d="M 111.035156 127.378906 L 249.800781 113.09375 L 263.625 247.382812 L 124.859375 261.667969 Z M 111.035156 127.378906 " clip-rule="nonzero"/></clipPath><clipPath id="845be7583c"><path d="M 111.035156 127.378906 L 249.800781 113.09375 L 263.625 247.382812 L 124.859375 261.667969 Z M 111.035156 127.378906 " clip-rule="nonzero"/></clipPath></defs><g clip-path="url(#203d7ba0f7)"><g clip-path="url(#e97fb97e0b)"><g clip-path="url(#17704c6f76)"><path fill="#fd288d" d="M 250.4375 175.40625 L 247.316406 181.246094 L 162.074219 135.761719 L 165.191406 129.925781 C 166.621094 127.238281 169.976562 126.21875 172.648438 127.648438 L 248.160156 167.9375 C 250.84375 169.367188 251.867188 172.722656 250.4375 175.40625 Z M 228.683594 216.175781 L 229.753906 186.871094 L 241.085938 192.921875 Z M 223.757812 242 C 223.644531 245.039062 221.082031 247.425781 218.046875 247.3125 L 132.519531 244.179688 C 129.484375 244.070312 127.089844 241.496094 127.207031 238.460938 L 128.578125 200.980469 L 225.136719 204.53125 Z M 129.308594 181.152344 C 129.417969 178.105469 131.984375 175.726562 135.019531 175.839844 L 220.546875 178.980469 C 223.589844 179.082031 225.976562 181.644531 225.855469 184.691406 L 225.617188 191.300781 L 129.058594 187.757812 Z M 155.851562 147.4375 L 206.546875 174.488281 L 142.664062 172.136719 Z M 250.03125 164.441406 L 174.53125 124.148438 C 169.914062 121.691406 164.152344 123.429688 161.683594 128.054688 L 138.242188 171.976562 L 135.171875 171.871094 C 129.941406 171.675781 125.53125 175.777344 125.339844 181.007812 L 123.246094 238.308594 C 123.046875 243.539062 127.148438 247.949219 132.367188 248.140625 L 217.894531 251.28125 C 223.125 251.476562 227.53125 247.363281 227.726562 242.144531 L 228.351562 225.230469 L 253.933594 177.269531 C 256.402344 172.660156 254.644531 166.902344 250.03125 164.441406 " fill-opacity="1" fill-rule="nonzero"/></g></g></g><g clip-path="url(#6d4972c5b7)"><g clip-path="url(#38bdf766c2)"><g clip-path="url(#7f08931e32)"><path fill="#fd288d" d="M 175.808594 212.96875 L 217.050781 214.492188 L 217.164062 211.222656 L 175.933594 209.707031 L 175.808594 212.96875 " fill-opacity="1" fill-rule="nonzero"/></g></g></g><g clip-path="url(#3326edd6c5)"><g clip-path="url(#279b339979)"><g clip-path="url(#845be7583c)"><path fill="#fd288d" d="M 175.5625 220.039062 L 216.792969 221.542969 L 216.90625 218.273438 L 175.675781 216.757812 L 175.5625 220.039062 " fill-opacity="1" fill-rule="nonzero"/></g></g></g></svg>