<svg xmlns="http://www.w3.org/2000/svg" xmlns:xlink="http://www.w3.org/1999/xlink" width="500" zoomAndPan="magnify" viewBox="0 0 375 374.999991" height="500" preserveAspectRatio="xMidYMid meet" version="1.0"><defs><clipPath id="a1fe77035e"><path d="M 115 119.527344 L 255 119.527344 L 255 182 L 115 182 Z M 115 119.527344 " clip-rule="nonzero"/></clipPath><clipPath id="5ff1faea4a"><path d="M 120 189 L 260 189 L 260 255.277344 L 120 255.277344 Z M 120 189 " clip-rule="nonzero"/></clipPath></defs><path fill="#fd288d" d="M 232.460938 168.355469 C 232.460938 167.476562 232.109375 167.125 232.109375 167.125 C 231.933594 166.773438 231.582031 166.421875 231.230469 166.070312 L 186.621094 139.023438 C 185.742188 138.496094 184.6875 138.496094 183.8125 139.023438 L 139.023438 166.070312 C 138.5 166.421875 138.148438 166.949219 137.972656 167.476562 C 137.972656 167.476562 137.972656 167.476562 137.972656 167.652344 C 137.796875 168.003906 137.796875 168.179688 137.796875 168.53125 L 137.796875 214.191406 C 137.796875 215.070312 138.324219 215.949219 139.023438 216.476562 L 184.6875 243.171875 C 185.039062 243.347656 185.390625 243.347656 186.09375 243.347656 C 186.621094 243.347656 187.148438 243.171875 187.324219 242.996094 L 231.230469 216.300781 C 231.933594 215.773438 232.460938 214.894531 232.460938 214.019531 Z M 185.214844 144.292969 L 224.90625 168.355469 L 212.789062 175.730469 L 172.921875 151.667969 Z M 167.828125 154.832031 L 207.519531 178.890625 L 203.65625 181.351562 L 163.964844 157.289062 Z M 206.117188 185.917969 L 209.628906 183.808594 L 209.628906 193.996094 L 206.117188 196.101562 Z M 158.871094 160.273438 L 198.5625 184.335938 L 185.917969 192.0625 L 145.523438 168.355469 Z M 142.890625 172.921875 L 183.285156 196.628906 L 183.285156 236.5 L 142.890625 212.789062 C 142.890625 212.789062 142.890625 172.921875 142.890625 172.921875 Z M 188.550781 236.324219 L 188.550781 196.628906 L 200.847656 189.078125 L 200.847656 200.667969 C 200.847656 201.546875 201.375 202.425781 202.25 202.953125 C 202.601562 203.128906 203.128906 203.304688 203.480469 203.304688 C 204.007812 203.304688 204.359375 203.128906 204.886719 202.953125 L 213.667969 197.683594 C 214.546875 197.15625 214.898438 196.277344 214.898438 195.402344 L 214.898438 180.472656 L 227.191406 172.921875 L 227.191406 212.613281 Z M 188.550781 236.324219 " fill-opacity="1" fill-rule="nonzero"/><g clip-path="url(#a1fe77035e)"><path fill="#fd288d" d="M 122.164062 181.878906 C 122.339844 181.878906 122.339844 181.878906 122.515625 181.878906 C 123.042969 181.878906 123.570312 181.703125 124.097656 181.351562 L 130.242188 176.609375 C 131.472656 175.730469 131.648438 174.148438 130.769531 172.921875 C 129.890625 171.691406 128.3125 171.515625 127.082031 172.394531 L 126.203125 173.097656 C 132.878906 144.820312 157.992188 124.796875 187.324219 124.796875 C 218.234375 124.796875 244.226562 146.925781 249.144531 177.3125 C 249.320312 178.539062 250.550781 179.59375 251.78125 179.59375 C 251.957031 179.59375 252.128906 179.59375 252.128906 179.59375 C 253.535156 179.417969 254.589844 178.011719 254.238281 176.609375 C 249.144531 143.414062 220.867188 119.527344 187.324219 119.527344 C 155.183594 119.527344 127.785156 141.660156 120.933594 172.746094 L 119.882812 171.339844 C 119.003906 170.109375 117.421875 169.933594 116.191406 170.8125 C 114.964844 171.691406 114.789062 173.445312 115.667969 174.5 L 120.410156 180.824219 C 120.933594 181.351562 121.460938 181.703125 122.164062 181.878906 Z M 122.164062 181.878906 " fill-opacity="1" fill-rule="nonzero"/></g><g clip-path="url(#5ff1faea4a)"><path fill="#fd288d" d="M 259.15625 196.453125 L 254.0625 190.660156 C 253.183594 189.605469 251.429688 189.429688 250.375 190.308594 L 244.402344 195.402344 C 243.347656 196.277344 243.171875 198.035156 244.050781 199.089844 C 244.929688 200.144531 246.6875 200.320312 247.738281 199.441406 L 248.96875 198.386719 C 243.699219 228.417969 217.882812 250.199219 187.148438 250.199219 C 157.464844 250.199219 131.648438 229.121094 125.675781 200.144531 C 125.324219 198.738281 123.921875 197.859375 122.515625 198.035156 C 121.109375 198.386719 120.234375 199.792969 120.410156 201.195312 C 127.082031 232.632812 155.183594 255.464844 187.324219 255.464844 C 220.691406 255.464844 248.792969 231.757812 254.414062 198.914062 L 255.292969 199.96875 C 255.820312 200.496094 256.519531 200.84375 257.222656 200.84375 C 257.75 200.84375 258.453125 200.667969 258.980469 200.144531 C 260.035156 199.265625 260.210938 197.507812 259.15625 196.453125 Z M 259.15625 196.453125 " fill-opacity="1" fill-rule="nonzero"/></g></svg>