<svg xmlns="http://www.w3.org/2000/svg" xmlns:xlink="http://www.w3.org/1999/xlink" width="500" zoomAndPan="magnify" viewBox="0 0 375 374.999991" height="500" preserveAspectRatio="xMidYMid meet" version="1.0"><defs><g/><clipPath id="b001199c5e"><path d="M 160.582031 216.789062 L 161.515625 216.789062 L 161.515625 222.066406 L 160.582031 222.066406 Z M 160.582031 216.789062 " clip-rule="nonzero"/></clipPath><clipPath id="922466e8ff"><path d="M 161.515625 216.847656 C 160.894531 222.113281 160.6875 222.042969 160.6875 222.042969 C 160.6875 222.042969 160.964844 222.042969 160.964844 222.011719 C 160.964844 222.011719 160.757812 222.078125 160.6875 222.042969 C 160.550781 221.90625 160.585938 221.320312 160.621094 220.769531 C 160.6875 219.839844 160.894531 217.054688 161.238281 216.8125 C 161.308594 216.746094 161.515625 216.847656 161.515625 216.847656 " clip-rule="nonzero"/></clipPath><clipPath id="db17531cc2"><path d="M 160.722656 217.78125 L 161.140625 217.78125 L 161.140625 219.457031 L 160.722656 219.457031 Z M 160.722656 217.78125 " clip-rule="nonzero"/></clipPath><clipPath id="c539d27953"><path d="M 161.136719 217.8125 C 161.101562 221.355469 160.550781 218.085938 160.792969 217.8125 C 160.859375 217.742188 161.136719 217.8125 161.136719 217.8125 " clip-rule="nonzero"/></clipPath></defs><g clip-path="url(#b001199c5e)"><g clip-path="url(#922466e8ff)"><path fill="#ffffff" d="M 159.242188 215.4375 L 162.925781 215.4375 L 162.925781 223.449219 L 159.242188 223.449219 Z M 159.242188 215.4375 " fill-opacity="1" fill-rule="nonzero"/></g></g><g clip-path="url(#db17531cc2)"><g clip-path="url(#c539d27953)"><path fill="#ffffff" d="M 159.414062 216.433594 L 162.546875 216.433594 L 162.546875 222.773438 L 159.414062 222.773438 Z M 159.414062 216.433594 " fill-opacity="1" fill-rule="nonzero"/></g></g><g fill="#85ff51" fill-opacity="1"><g transform="translate(99.598254, 238.421013)"><g><path d="M 10.515625 -61.875 C 9.035156 -66.90625 7.570312 -71.707031 6.125 -76.28125 C 4.675781 -80.863281 2.632812 -84.3125 0 -86.625 L 43.3125 -86.625 C 41.820312 -83.15625 41.445312 -79.335938 42.1875 -75.171875 C 42.9375 -71.003906 43.929688 -66.570312 45.171875 -61.875 C 46.328125 -57.582031 47.519531 -53.003906 48.75 -48.140625 C 49.988281 -43.273438 51.269531 -38.488281 52.59375 -33.78125 C 53.914062 -29.082031 55.253906 -24.789062 56.609375 -20.90625 C 57.972656 -17.03125 59.296875 -13.9375 60.578125 -11.625 C 61.859375 -9.320312 63.113281 -8.171875 64.34375 -8.171875 C 65.832031 -8.171875 67.253906 -9.550781 68.609375 -12.3125 C 69.972656 -15.070312 71.085938 -18.617188 71.953125 -22.953125 C 72.828125 -27.285156 73.265625 -31.757812 73.265625 -36.375 C 73.265625 -42.726562 72.5 -47.820312 70.96875 -51.65625 C 69.445312 -55.5 67.570312 -58.492188 65.34375 -60.640625 C 63.113281 -62.785156 60.90625 -64.429688 58.71875 -65.578125 C 56.53125 -66.734375 54.671875 -67.722656 53.140625 -68.546875 C 51.617188 -69.378906 50.859375 -70.414062 50.859375 -71.65625 C 50.859375 -73.632812 51.722656 -75.613281 53.453125 -77.59375 C 55.191406 -79.570312 57.503906 -81.382812 60.390625 -83.03125 C 63.273438 -84.6875 66.390625 -86.007812 69.734375 -87 C 73.078125 -87.988281 76.359375 -88.484375 79.578125 -88.484375 C 82.867188 -88.484375 85.484375 -87.71875 87.421875 -86.1875 C 89.367188 -84.664062 90.796875 -82.707031 91.703125 -80.3125 C 92.609375 -77.914062 93.0625 -75.359375 93.0625 -72.640625 C 93.0625 -69.171875 92.296875 -64.585938 90.765625 -58.890625 C 89.242188 -53.203125 87.285156 -46.851562 84.890625 -39.84375 C 82.492188 -32.832031 79.9375 -25.570312 77.21875 -18.0625 C 74.5 -10.5625 71.941406 -3.257812 69.546875 3.84375 C 67.566406 8.625 65.628906 13.140625 63.734375 17.390625 C 61.835938 21.640625 59.734375 25.390625 57.421875 28.640625 C 55.109375 31.898438 52.382812 34.4375 49.25 36.25 C 46.113281 38.070312 42.28125 38.984375 37.75 38.984375 C 35.269531 38.984375 32.664062 38.609375 29.9375 37.859375 C 27.21875 37.117188 24.910156 36.191406 23.015625 35.078125 C 21.117188 33.960938 20.171875 32.832031 20.171875 31.6875 C 20.171875 30.363281 20.5 28.734375 21.15625 26.796875 C 21.820312 24.859375 22.566406 22.648438 23.390625 20.171875 C 24.378906 17.035156 25.390625 14.164062 26.421875 11.5625 C 27.453125 8.96875 28.585938 7.671875 29.828125 7.671875 C 31.140625 7.671875 32.539062 8.0625 34.03125 8.84375 C 35.519531 9.632812 37.296875 10.441406 39.359375 11.265625 C 41.421875 12.085938 43.851562 12.5 46.65625 12.5 C 50.445312 12.5 53.519531 11.859375 55.875 10.578125 C 58.226562 9.296875 59.957031 7.867188 61.0625 6.296875 C 62.175781 4.734375 62.734375 3.5 62.734375 2.59375 C 62.734375 1.4375 62.257812 0.710938 61.3125 0.421875 C 60.363281 0.140625 59.269531 0 58.03125 0 L 36.75 0 C 34.195312 0 32.070312 -0.925781 30.375 -2.78125 C 28.6875 -4.632812 27.265625 -7.066406 26.109375 -10.078125 C 24.953125 -13.097656 23.941406 -16.316406 23.078125 -19.734375 C 22.210938 -23.160156 21.328125 -26.398438 20.421875 -29.453125 C 19.347656 -33.410156 18.316406 -36.9375 17.328125 -40.03125 C 16.335938 -43.125 15.304688 -46.363281 14.234375 -49.75 C 13.160156 -53.132812 11.921875 -57.175781 10.515625 -61.875 Z M 10.515625 -61.875 "/></g></g></g><g fill="#85ff51" fill-opacity="1"><g transform="translate(195.754307, 238.421013)"><g><path d="M 0 -86.625 C 2.476562 -86.625 5.242188 -87.488281 8.296875 -89.21875 C 11.347656 -90.957031 14.441406 -93.125 17.578125 -95.71875 C 20.710938 -98.320312 23.679688 -100.898438 26.484375 -103.453125 C 29.285156 -106.015625 31.757812 -108.160156 33.90625 -109.890625 C 36.050781 -111.617188 37.617188 -112.484375 38.609375 -112.484375 C 40.179688 -112.484375 40.96875 -111.492188 40.96875 -109.515625 L 40.96875 -86.625 L 51.609375 -86.625 L 51.609375 -80.4375 L 40.96875 -80.4375 L 40.96875 -30.4375 C 40.96875 -27.21875 41.003906 -24 41.078125 -20.78125 C 41.160156 -17.570312 41.613281 -14.6875 42.4375 -12.125 C 43.269531 -9.570312 44.757812 -7.59375 46.90625 -6.1875 C 47.394531 -5.851562 47.90625 -5.6875 48.4375 -5.6875 C 48.976562 -5.6875 49.539062 -5.601562 50.125 -5.4375 C 49.957031 -3.957031 49.148438 -2.660156 47.703125 -1.546875 C 46.265625 -0.429688 44.550781 0.410156 42.5625 0.984375 C 40.582031 1.566406 38.601562 1.859375 36.625 1.859375 C 30.6875 1.859375 25.921875 0.867188 22.328125 -1.109375 C 18.742188 -3.085938 16.023438 -5.75 14.171875 -9.09375 C 12.316406 -12.4375 11.078125 -16.171875 10.453125 -20.296875 C 9.835938 -24.421875 9.53125 -28.585938 9.53125 -32.796875 L 9.53125 -72.515625 C 9.53125 -73.753906 9.46875 -74.992188 9.34375 -76.234375 C 9.21875 -77.472656 8.765625 -78.484375 7.984375 -79.265625 C 7.203125 -80.046875 5.820312 -80.4375 3.84375 -80.4375 L 0 -80.4375 Z M 0 -86.625 "/></g></g></g><g fill="#85ff51" fill-opacity="1"><g transform="translate(248.596829, 238.421013)"><g><path d="M 0 -73.390625 C 0 -74.046875 0.203125 -74.457031 0.609375 -74.625 C 1.023438 -74.789062 1.273438 -74.914062 1.359375 -75 C 2.347656 -75.488281 3.894531 -76.25 6 -77.28125 C 8.101562 -78.3125 10.492188 -79.46875 13.171875 -80.75 C 15.859375 -82.03125 18.601562 -83.242188 21.40625 -84.390625 C 24.207031 -85.546875 26.804688 -86.515625 29.203125 -87.296875 C 31.597656 -88.085938 33.535156 -88.484375 35.015625 -88.484375 C 36.835938 -88.484375 37.910156 -87.988281 38.234375 -87 C 38.566406 -86.007812 38.734375 -84.894531 38.734375 -83.65625 L 38.734375 -14.609375 C 38.734375 -11.054688 39.039062 -8.144531 39.65625 -5.875 C 40.28125 -3.601562 41.414062 -1.644531 43.0625 0 L 1.609375 0 C 3.253906 -1.644531 4.382812 -3.601562 5 -5.875 C 5.625 -8.144531 5.9375 -11.054688 5.9375 -14.609375 L 5.9375 -62.125 C 5.9375 -62.613281 5.914062 -63.519531 5.875 -64.84375 C 5.832031 -66.164062 5.539062 -67.503906 5 -68.859375 C 4.46875 -70.222656 3.421875 -71.15625 1.859375 -71.65625 C 1.691406 -71.738281 1.335938 -71.859375 0.796875 -72.015625 C 0.265625 -72.179688 0 -72.640625 0 -73.390625 Z M 22.03125 -131.046875 C 27.46875 -131.046875 31.835938 -129.394531 35.140625 -126.09375 C 38.441406 -122.800781 40.09375 -118.429688 40.09375 -112.984375 C 40.09375 -107.535156 38.441406 -103.160156 35.140625 -99.859375 C 31.835938 -96.566406 27.46875 -94.921875 22.03125 -94.921875 C 16.582031 -94.921875 12.207031 -96.566406 8.90625 -99.859375 C 5.601562 -103.160156 3.953125 -107.535156 3.953125 -112.984375 C 3.953125 -118.429688 5.601562 -122.800781 8.90625 -126.09375 C 12.207031 -129.394531 16.582031 -131.046875 22.03125 -131.046875 Z M 22.03125 -131.046875 "/></g></g></g><path stroke-linecap="butt" transform="matrix(2.297701, 0, 0, 2.297701, 85.713793, 104.032668)" fill="none" stroke-linejoin="miter" d="M 6.935039 30.070206 C 6.287313 27.878817 5.646387 25.787732 5.015661 23.796951 C 4.393436 21.799369 3.5077 20.299908 2.360153 19.300268 L 21.21562 19.300268 C 20.566194 20.808229 20.404687 22.469197 20.7294 24.28487 C 21.054113 26.098844 21.482531 28.026723 22.018053 30.070206 C 22.517873 31.936882 23.034694 33.931063 23.570216 36.052749 C 24.112538 38.165935 24.670161 40.24682 25.239684 42.298803 C 25.817707 44.342286 26.405931 46.208962 27.000955 47.900531 C 27.59768 49.583599 28.172303 50.930054 28.723125 51.938195 C 29.275648 52.946336 29.82477 53.449557 30.367092 53.449557 C 31.016519 53.449557 31.633644 52.849432 32.221868 51.647483 C 32.818592 50.438734 33.304812 48.891671 33.680527 47.006294 C 34.057942 45.120918 34.24665 43.176039 34.24665 41.168257 C 34.24665 38.397144 33.913436 36.180254 33.247009 34.514186 C 32.580582 32.839618 31.761149 31.539065 30.788709 30.609128 C 29.82477 29.670689 28.864231 28.95156 27.908792 28.45344 C 26.961854 27.95362 26.156021 27.523502 25.489594 27.164788 C 24.823167 26.804373 24.489953 26.353855 24.489953 25.809832 C 24.489953 24.951298 24.867369 24.091063 25.620499 23.232528 C 26.37533 22.373993 27.378371 21.583461 28.631322 20.866031 C 29.894473 20.146902 31.252828 19.572279 32.708087 19.142161 C 34.163347 18.705243 35.593105 18.485935 36.995662 18.485935 C 38.43222 18.485935 39.572967 18.819148 40.414501 19.483875 C 41.256035 20.150302 41.87316 21.005437 42.267576 22.049279 C 42.661992 23.082922 42.8592 24.196467 42.8592 25.388215 C 42.8592 26.896177 42.525987 28.890358 41.85956 31.372459 C 41.203333 33.844359 40.351598 36.605271 39.309456 39.655196 C 38.265613 42.70682 37.152068 45.867248 35.96882 49.136481 C 34.785572 52.405714 33.672027 55.584843 32.629884 58.670469 C 31.769649 60.756454 30.924715 62.720034 30.091681 64.561208 C 29.267147 66.410884 28.35081 68.04635 27.342669 69.465908 C 26.344729 70.885466 25.15978 71.990511 23.792925 72.779343 C 22.43457 73.568175 20.763402 73.962591 18.782821 73.962591 C 17.704977 73.962591 16.574431 73.801084 15.391183 73.476371 C 14.206235 73.160158 13.203194 72.757242 12.378661 72.265922 C 11.555827 71.784802 11.14271 71.293482 11.14271 70.793662 C 11.14271 70.215638 11.283816 69.50501 11.564327 68.663475 C 11.853339 67.821941 12.178052 66.861402 12.536767 65.783558 C 12.966885 64.416703 13.405502 63.167152 13.852621 62.036606 C 14.308239 60.90606 14.802959 60.339937 15.338481 60.339937 C 15.916505 60.339937 16.525129 60.511644 17.166055 60.853358 C 17.813782 61.195072 18.585613 61.545286 19.479849 61.904 C 20.382586 62.264415 21.443429 62.444622 22.662379 62.444622 C 24.318246 62.444622 25.656201 62.164111 26.672842 61.603088 C 27.697984 61.050566 28.452814 60.431741 28.933934 59.748313 C 29.425254 59.064885 29.670064 58.525963 29.670064 58.131547 C 29.670064 57.631727 29.460955 57.315514 29.039338 57.184608 C 28.627921 57.062203 28.153602 56.999301 27.61978 56.999301 L 18.362904 56.999301 C 17.249359 56.999301 16.324521 56.596385 15.588391 55.790552 C 14.850561 54.983019 14.228336 53.927276 13.720015 52.621623 C 13.220195 51.305769 12.783277 49.903212 12.405862 48.413952 C 12.028446 46.922991 11.642531 45.511934 11.248115 44.17908 C 10.783996 42.46031 10.331777 40.926847 9.89316 39.576992 C 9.464742 38.227137 9.017624 36.81608 8.553505 35.34212 C 8.087686 33.86986 7.548764 32.111989 6.935039 30.070206 Z M 44.207355 19.300268 C 45.286899 19.300268 46.487148 18.922852 47.811502 18.169722 C 49.144356 17.416591 50.489111 16.473053 51.847466 15.342507 C 53.216021 14.211961 54.508074 13.089915 55.727024 11.97637 C 56.954474 10.862825 58.032317 9.929487 58.962255 9.176356 C 59.898993 8.421525 60.584121 8.04411 61.012539 8.04411 C 61.697666 8.04411 62.03938 8.474227 62.03938 9.332762 L 62.03938 19.300268 L 66.666969 19.300268 L 66.666969 21.996577 L 62.03938 21.996577 L 62.03938 43.745562 C 62.03938 45.148119 62.056381 46.550676 62.092082 47.953233 C 62.126084 49.35579 62.323292 50.613841 62.683707 51.727387 C 63.042421 52.840932 63.686747 53.699467 64.616685 54.304691 C 64.835994 54.452597 65.058703 54.5274 65.286512 54.5274 C 65.522822 54.5274 65.769332 54.563102 66.022642 54.632805 C 65.95294 55.282231 65.602725 55.846654 64.9703 56.329474 C 64.339574 56.812293 63.594944 57.176108 62.736409 57.420918 C 61.876174 57.674228 61.012539 57.801734 60.145503 57.801734 C 57.568198 57.801734 55.494114 57.373316 53.92495 56.513081 C 52.365987 55.654546 51.181039 54.496799 50.375206 53.04154 C 49.569373 51.586281 49.030451 49.961015 48.75844 48.164042 C 48.486429 46.367068 48.350424 44.556495 48.350424 42.732321 L 48.350424 25.440917 C 48.350424 24.898595 48.323222 24.357973 48.27052 23.824152 C 48.219518 23.28013 48.02231 22.841512 47.678896 22.508298 C 47.337182 22.166584 46.737058 21.996577 45.878523 21.996577 L 44.207355 21.996577 Z M 67.20589 25.060102 C 67.20589 24.77109 67.294294 24.590883 67.469401 24.52118 C 67.653009 24.451477 67.763513 24.398775 67.797515 24.363074 C 68.227632 24.143765 68.897459 23.810551 69.810396 23.363433 C 70.730134 22.916315 71.773976 22.416494 72.938524 21.863972 C 74.104771 21.302949 75.29822 20.772528 76.515469 20.274407 C 77.742919 19.766087 78.873465 19.339369 79.908807 18.997655 C 80.950949 18.655941 81.797584 18.485935 82.44701 18.485935 C 83.235842 18.485935 83.699961 18.705243 83.839367 19.142161 C 83.988973 19.572279 84.063776 20.055098 84.063776 20.58892 L 84.063776 50.649543 C 84.063776 52.191505 84.194681 53.458057 84.458192 54.449197 C 84.730203 55.430137 85.224923 56.281872 85.944053 56.999301 L 67.902919 56.999301 C 68.622048 56.281872 69.116768 55.430137 69.388779 54.449197 C 69.66079 53.458057 69.796796 52.191505 69.796796 50.649543 L 69.796796 29.964801 C 69.796796 29.745492 69.788295 29.351076 69.769595 28.781553 C 69.752594 28.20353 69.625089 27.620406 69.388779 27.032182 C 69.15247 26.437158 68.691751 26.029141 68.008323 25.809832 C 67.93862 25.774131 67.785614 25.721429 67.547604 25.651726 C 67.319795 25.582023 67.20589 25.384815 67.20589 25.060102 Z M 76.79258 -0.041419 C 79.159077 -0.041419 81.061454 0.67601 82.499712 2.114269 C 83.936271 3.552527 84.6554 5.454905 84.6554 7.821401 C 84.6554 10.196397 83.936271 12.103875 82.499712 13.540433 C 81.061454 14.970192 79.159077 15.684221 76.79258 15.684221 C 74.424384 15.684221 72.523707 14.970192 71.085448 13.540433 C 69.64719 12.103875 68.928061 10.196397 68.928061 7.821401 C 68.928061 5.454905 69.64719 3.552527 71.085448 2.114269 C 72.523707 0.67601 74.424384 -0.041419 76.79258 -0.041419 Z M 76.79258 -0.041419 " stroke="#3e0eb3" stroke-width="2.457663" stroke-opacity="1" stroke-miterlimit="4"/></svg>